<?xml version="1.0" encoding="utf-8"?>
<svg viewBox="265.814 151.413 212.315 157.47" style="enable-background:new 0 0 750 500;" xmlns="http://www.w3.org/2000/svg">
  <defs>
    <style type="text/css">
	.st0{fill:#37474F;}
	.st1{fill:#455EEB;}
</style>
  </defs>
  <g id="OBJECTS" style="" transform="matrix(1.7396860122680664, 0, 0, 1.459542989730835, -309.7349335472263, -92.98642244894563)">
    <g>
      <g>
        <g>
          <path class="st0" d="M442.7,192.4H418l1,7h23.7c1.5,0,2.7,1.2,2.7,2.8v49.5c0,1.5-1.2,2.8-2.7,2.8H341.1c-1.5,0-2.7-1.2-2.7-2.8 v-49.5c0-1.5,1.2-2.8,2.7-2.8h23.7l1-7h-24.7c-5.4,0-9.7,4.4-9.7,9.8v49.5c0,5.4,4.4,9.8,9.7,9.8h101.6c5.4,0,9.7-4.4,9.7-9.8 v-49.5C452.4,196.7,448.1,192.4,442.7,192.4z"/>
        </g>
        <g>
          <path class="st1" d="M414.5,248.1h-45.2c-2.7,0-4.7-2.8-4.4-6l3.7-55.6c0.3-2.7,2.2-4.6,4.4-4.6h2.3c0,0,0,0,0,0.1l-0.3,4.2 c0,0.6,0.2,1.2,0.6,1.6c0.4,0.4,1,0.7,1.6,0.7c1.1,0,2.1-0.9,2.2-2l0.3-4.2c0-0.1,0-0.2,0-0.4h24.5c0,0,0,0,0,0l0.3,4.5 c0.1,1.1,1,2,2.2,2c0.6,0,1.2-0.3,1.6-0.7c0.4-0.4,0.6-1,0.6-1.6l-0.3-4.3h2.3c2.2,0,4.1,2,4.4,4.6l3.7,55.6 C419.2,245.2,417.2,248.1,414.5,248.1z"/>
          <g>
            <path class="st1" d="M407.8,186.1c0,0.7-0.5,1.2-1.1,1.2c-0.6,0-1.1-0.5-1.1-1l-0.3-4.5l0,0c-0.5-6.8-6-12.1-12.7-12.4 c-0.2,0-0.4,0-0.6,0c-6.9,0-12.7,5.5-13.3,12.5c0,0.1,0,0.2,0,0.3l-0.3,4.2c0,0.6-0.5,1-1.1,1c-0.7,0-1.2-0.6-1.1-1.2l0.3-4.2 c0,0,0-0.1,0-0.1c0.6-7.6,6.5-13.9,14.1-14.6c0.5,0,1-0.1,1.5-0.1c8.2,0,15,6.4,15.6,14.5l0,0.2L407.8,186.1z"/>
          </g>
        </g>
        <rect x="387.4" y="257.5" class="st0" width="9.1" height="11.9"/>
        <path class="st0" d="M373.3,274.1L373.3,274.1h37.3l0,0c0-2.6-2.1-4.8-4.8-4.8H378C375.4,269.3,373.3,271.4,373.3,274.1z"/>
      </g>
    </g>
  </g>
</svg>